<svg width="30" height="31" viewBox="0 0 30 31" fill="none" xmlns="http://www.w3.org/2000/svg">
<g clip-path="url(#clip0)">
<path d="M18.9688 10.5901C18.9688 8.63363 18.1786 6.75725 16.7721 5.37379C15.3655 3.99033 13.4579 3.2131 11.4688 3.2131C9.47963 3.2131 7.57197 3.99033 6.16545 5.37379C4.75893 6.75725 3.96875 8.63363 3.96875 10.5901C3.96875 19.1967 0.21875 21.6557 0.21875 21.6557H22.7188C22.7188 21.6557 18.9688 19.1967 18.9688 10.5901Z" stroke="black" stroke-width="2" stroke-linecap="round" stroke-linejoin="round"/>
<path d="M13.6331 26.5737C13.4133 26.9464 13.0979 27.2557 12.7184 27.4707C12.3389 27.6857 11.9086 27.7989 11.4706 27.7989C11.0326 27.7989 10.6023 27.6857 10.2228 27.4707C9.8433 27.2557 9.52787 26.9464 9.30811 26.5737" stroke="black" stroke-width="2" stroke-linecap="round" stroke-linejoin="round"/>
<ellipse cx="18.9727" cy="8.13113" rx="7.5" ry="7.37704" fill="#F72F09"/>
<path d="M18.7248 8.30709C18.9488 8.26042 19.1635 8.22776 19.3688 8.20909C19.5741 8.18576 19.7725 8.17409 19.9638 8.17409C20.4958 8.17409 20.9648 8.25342 21.3708 8.41209C21.7768 8.57076 22.1175 8.79009 22.3928 9.07009C22.6681 9.35009 22.8758 9.67909 23.0158 10.0571C23.1558 10.4304 23.2258 10.8341 23.2258 11.2681C23.2258 11.8048 23.1301 12.2948 22.9388 12.7381C22.7521 13.1814 22.4908 13.5618 22.1548 13.8791C21.8188 14.1918 21.4198 14.4344 20.9578 14.6071C20.5005 14.7798 20.0011 14.8661 19.4598 14.8661C19.1425 14.8661 18.8415 14.8334 18.5568 14.7681C18.2721 14.7028 18.0038 14.6164 17.7518 14.5091C17.5045 14.3971 17.2735 14.2711 17.0588 14.1311C16.8488 13.9864 16.6598 13.8348 16.4918 13.6761L17.0238 12.9411C17.1358 12.7824 17.2828 12.7031 17.4648 12.7031C17.5815 12.7031 17.7005 12.7404 17.8218 12.8151C17.9431 12.8898 18.0808 12.9714 18.2348 13.0601C18.3935 13.1488 18.5778 13.2304 18.7878 13.3051C19.0025 13.3798 19.2591 13.4171 19.5578 13.4171C19.8751 13.4171 20.1551 13.3658 20.3978 13.2631C20.6405 13.1604 20.8411 13.0181 20.9998 12.8361C21.1631 12.6494 21.2845 12.4301 21.3638 12.1781C21.4478 11.9214 21.4898 11.6438 21.4898 11.3451C21.4898 10.7944 21.3288 10.3651 21.0068 10.0571C20.6895 9.74442 20.2181 9.58809 19.5928 9.58809C19.1121 9.58809 18.6198 9.67676 18.1158 9.85409L17.0378 9.54609L17.8778 4.63209H22.8758V5.36709C22.8758 5.61442 22.7988 5.81509 22.6448 5.96909C22.4908 6.12309 22.2295 6.20009 21.8608 6.20009H19.0818L18.7248 8.30709Z" fill="#FAFAFA"/>
</g>
<defs>
<clipPath id="clip0">
<rect width="30" height="29.5082" fill="white" transform="translate(0 0.754089)"/>
</clipPath>
</defs>
</svg>
