<svg width="14" height="14" viewBox="0 0 14 14" fill="none" xmlns="http://www.w3.org/2000/svg">
<path d="M13.4168 11.0833C13.4168 11.3928 13.2939 11.6895 13.0751 11.9083C12.8563 12.1271 12.5596 12.25 12.2502 12.25H1.75016C1.44074 12.25 1.144 12.1271 0.925205 11.9083C0.706412 11.6895 0.583496 11.3928 0.583496 11.0833V4.66667C0.583496 4.35725 0.706412 4.0605 0.925205 3.84171C1.144 3.62292 1.44074 3.5 1.75016 3.5H4.0835L5.25016 1.75H8.75016L9.91683 3.5H12.2502C12.5596 3.5 12.8563 3.62292 13.0751 3.84171C13.2939 4.0605 13.4168 4.35725 13.4168 4.66667V11.0833Z" stroke="black" stroke-linecap="round" stroke-linejoin="round"/>
<path d="M6.99984 9.91667C8.2885 9.91667 9.33317 8.872 9.33317 7.58333C9.33317 6.29467 8.2885 5.25 6.99984 5.25C5.71117 5.25 4.6665 6.29467 4.6665 7.58333C4.6665 8.872 5.71117 9.91667 6.99984 9.91667Z" stroke="black" stroke-linecap="round" stroke-linejoin="round"/>
</svg>
